<svg width="20" height="20" viewBox="0 0 20 20" fill="none" xmlns="http://www.w3.org/2000/svg">
<path fill-rule="evenodd" clip-rule="evenodd" d="M18.3996 15.3242C18.8621 10.8895 18.8621 6.41873 18.3996 1.98406C18.2347 0.402616 16.4116 -0.398994 15.1351 0.549871L10.8802 3.71275C9.58332 4.67705 8.01022 5.19778 6.39412 5.19775H2.42444C1.7089 5.19775 1.12817 5.77848 1.12817 6.49402V10.8142C1.12817 11.5297 1.7089 12.1105 2.42444 12.1105H3.07153L2.19526 15.3822C2.14793 15.5589 2.1644 15.7467 2.24179 15.9124C2.31917 16.0782 2.4525 16.2114 2.61836 16.2886L6.43456 18.0691C6.53754 18.1172 6.64982 18.1422 6.76349 18.1422C6.87715 18.1422 6.98945 18.1174 7.09246 18.0693C7.19547 18.0213 7.2867 17.9512 7.35973 17.8641C7.43275 17.777 7.48579 17.675 7.51512 17.5651L8.82487 12.6787C8.8387 12.6269 8.84699 12.575 8.84976 12.5232C9.57753 12.7752 10.2626 13.1368 10.8813 13.5955L15.1361 16.7584C16.4116 17.7072 18.2368 16.9056 18.4006 15.3242M16.8534 2.14376C17.3034 6.47198 17.3034 10.8352 16.8534 15.1634C16.8443 15.2504 16.8123 15.3333 16.7607 15.4039C16.7092 15.4745 16.6399 15.5302 16.5599 15.5654C16.4799 15.6005 16.392 15.6139 16.3051 15.6041C16.2182 15.5944 16.1355 15.5618 16.0653 15.5098L11.8083 12.3469C10.2434 11.1834 8.34523 10.5551 6.39515 10.555H2.68369V6.75327H6.39619C8.34627 6.75315 10.2444 6.12479 11.8094 4.96132L16.0642 1.79843C16.1345 1.74639 16.2172 1.71383 16.3041 1.70407C16.3909 1.69432 16.4788 1.7077 16.5588 1.74287C16.6389 1.77803 16.7082 1.83373 16.7597 1.90432C16.8113 1.97491 16.8432 2.05787 16.8524 2.14479M7.35646 12.1727C7.03739 12.131 6.7159 12.1105 6.39412 12.1115H4.68097L3.86588 15.1562L6.25101 16.2689L7.3212 12.2764C7.33112 12.2412 7.34289 12.2066 7.35646 12.1727Z" fill="white"/>
</svg>
